<svg width="21" height="21" viewBox="0 0 21 21" fill="none" xmlns="http://www.w3.org/2000/svg">
<path d="M10.5 1.89082C13.3055 1.89082 13.6377 1.90312 14.741 1.95234C15.7664 1.99746 16.3201 2.16973 16.6893 2.31328C17.1773 2.50195 17.5301 2.73164 17.8951 3.09668C18.2643 3.46582 18.4898 3.81445 18.6785 4.30254C18.8221 4.67168 18.9943 5.22949 19.0395 6.25078C19.0887 7.3582 19.101 7.69043 19.101 10.4918C19.101 13.2973 19.0887 13.6295 19.0395 14.7328C18.9943 15.7582 18.8221 16.3119 18.6785 16.6811C18.4898 17.1691 18.2602 17.5219 17.8951 17.8869C17.526 18.2561 17.1773 18.4816 16.6893 18.6703C16.3201 18.8139 15.7623 18.9861 14.741 19.0312C13.6336 19.0805 13.3014 19.0928 10.5 19.0928C7.69453 19.0928 7.36231 19.0805 6.25899 19.0312C5.23359 18.9861 4.67988 18.8139 4.31074 18.6703C3.82266 18.4816 3.46992 18.252 3.10488 17.8869C2.73574 17.5178 2.51016 17.1691 2.32148 16.6811C2.17793 16.3119 2.00566 15.7541 1.96055 14.7328C1.91133 13.6254 1.89902 13.2932 1.89902 10.4918C1.89902 7.68633 1.91133 7.3541 1.96055 6.25078C2.00566 5.22539 2.17793 4.67168 2.32148 4.30254C2.51016 3.81445 2.73984 3.46172 3.10488 3.09668C3.47402 2.72754 3.82266 2.50195 4.31074 2.31328C4.67988 2.16973 5.2377 1.99746 6.25899 1.95234C7.36231 1.90312 7.69453 1.89082 10.5 1.89082ZM10.5 0C7.64942 0 7.29258 0.0123047 6.17285 0.0615234C5.05723 0.110742 4.29024 0.291211 3.62578 0.549609C2.93262 0.820312 2.34609 1.17715 1.76367 1.76367C1.17715 2.34609 0.820313 2.93262 0.549609 3.62168C0.291211 4.29023 0.110742 5.05312 0.0615234 6.16875C0.0123047 7.29258 0 7.64941 0 10.5C0 13.3506 0.0123047 13.7074 0.0615234 14.8271C0.110742 15.9428 0.291211 16.7098 0.549609 17.3742C0.820313 18.0674 1.17715 18.6539 1.76367 19.2363C2.34609 19.8188 2.93262 20.1797 3.62168 20.4463C4.29024 20.7047 5.05313 20.8852 6.16875 20.9344C7.28848 20.9836 7.64531 20.9959 10.4959 20.9959C13.3465 20.9959 13.7033 20.9836 14.823 20.9344C15.9387 20.8852 16.7057 20.7047 17.3701 20.4463C18.0592 20.1797 18.6457 19.8188 19.2281 19.2363C19.8105 18.6539 20.1715 18.0674 20.4381 17.3783C20.6965 16.7098 20.877 15.9469 20.9262 14.8313C20.9754 13.7115 20.9877 13.3547 20.9877 10.5041C20.9877 7.65352 20.9754 7.29668 20.9262 6.17695C20.877 5.06133 20.6965 4.29434 20.4381 3.62988C20.1797 2.93262 19.8229 2.34609 19.2363 1.76367C18.6539 1.18125 18.0674 0.820312 17.3783 0.553711C16.7098 0.295312 15.9469 0.114844 14.8313 0.065625C13.7074 0.0123047 13.3506 0 10.5 0Z" fill="black"/>
<path d="M10.5 5.10645C7.52227 5.10645 5.10645 7.52227 5.10645 10.5C5.10645 13.4777 7.52227 15.8936 10.5 15.8936C13.4777 15.8936 15.8936 13.4777 15.8936 10.5C15.8936 7.52227 13.4777 5.10645 10.5 5.10645ZM10.5 13.9986C8.56816 13.9986 7.00137 12.4318 7.00137 10.5C7.00137 8.56816 8.56816 7.00137 10.5 7.00137C12.4318 7.00137 13.9986 8.56816 13.9986 10.5C13.9986 12.4318 12.4318 13.9986 10.5 13.9986Z" fill="black"/>
<path d="M17.366 4.89297C17.366 5.59024 16.8 6.15215 16.1068 6.15215C15.4096 6.15215 14.8477 5.58613 14.8477 4.89297C14.8477 4.1957 15.4137 3.63379 16.1068 3.63379C16.8 3.63379 17.366 4.19981 17.366 4.89297Z" fill="black"/>
</svg>
