<svg width="20" height="20" viewBox="0 0 20 20" fill="none" xmlns="http://www.w3.org/2000/svg">
<path d="M13.3333 8.33317C13.3333 9.21723 12.9821 10.0651 12.357 10.6902C11.7319 11.3153 10.8841 11.6665 10 11.6665C9.11594 11.6665 8.2681 11.3153 7.64298 10.6902C7.01786 10.0651 6.66667 9.21723 6.66667 8.33317M5 1.6665L2.5 4.99984V16.6665C2.5 17.5832 3.25 18.3332 4.16667 18.3332H15.8333C16.2754 18.3332 16.6993 18.1576 17.0118 17.845C17.3244 17.5325 17.5 17.1085 17.5 16.6665V4.99984L15 1.6665H5ZM3.16667 4.99984H16.8333H3.16667Z" stroke="black" stroke-width="1.5" stroke-linejoin="bevel"/>
</svg>
