<svg width="217" height="24" viewBox="0 0 217 24" fill="none" xmlns="http://www.w3.org/2000/svg">
<path d="M24.4607 21.15H19.8396L36.6602 0H44.3619V24H36.6602V7.65L38.9707 8.8125L26.802 24H17.5599L5.3604 8.85L7.70172 7.6875V24H0V0H7.70172L24.4607 21.15Z" fill="white"/>
<path d="M53.7296 20.3625V14.7375H74.8015V20.3625H53.7296ZM46.8289 24L60.045 0H68.6093L81.9487 24H73.4768L62.0475 2.5125H66.6377L55.3008 24H46.8289Z" fill="white"/>
<path d="M79.1845 0H111.224V7.125H79.1845V0ZM91.3532 6.6375H99.055V24H91.3532V6.6375Z" fill="white"/>
<path d="M113.06 0H145.099V7.125H113.06V0ZM125.229 6.6375H132.93V24H125.229V6.6375Z" fill="white"/>
<path d="M155.87 13.875V16.875H179.283V24H148.168V0H179.221V7.125H155.87V10.125H174.97V13.875H155.87Z" fill="white"/>
<path d="M183.277 24V0H207.091C208.96 0 210.633 0.2625 212.112 0.787501C213.611 1.2875 214.792 2.1375 215.655 3.3375C216.538 4.5375 216.98 6.175 216.98 8.25C216.98 9.625 216.774 10.7625 216.363 11.6625C215.953 12.5625 215.388 13.2625 214.669 13.7625C213.95 14.2625 213.129 14.625 212.205 14.85C211.28 15.075 210.315 15.2125 209.309 15.2625L207.06 14.7375C209.504 14.7625 211.383 14.8875 212.697 15.1125C214.032 15.3375 214.957 15.75 215.47 16.35C216.004 16.925 216.271 17.7625 216.271 18.8625V24H208.569V19.9875C208.569 19.2375 208.446 18.675 208.2 18.3C207.974 17.9 207.46 17.625 206.659 17.475C205.879 17.325 204.667 17.25 203.024 17.25H190.979V24H183.277ZM190.979 10.9875H207.091C207.707 10.9875 208.22 10.8625 208.631 10.6125C209.062 10.3625 209.278 9.8875 209.278 9.1875C209.278 8.5375 209.062 8.1 208.631 7.875C208.22 7.625 207.707 7.5 207.091 7.5H190.979V10.9875Z" fill="white"/>
</svg>
